<svg width="16" height="14" viewBox="0 0 16 14" fill="none" xmlns="http://www.w3.org/2000/svg">
<path d="M7.66667 6.33333V10.3333M5.66667 8.33333H9.66667M14.3333 11.6667C14.3333 12.0203 14.1929 12.3594 13.9428 12.6095C13.6928 12.8595 13.3536 13 13 13H2.33333C1.97971 13 1.64057 12.8595 1.39052 12.6095C1.14048 12.3594 1 12.0203 1 11.6667V2.33333C1 1.97971 1.14048 1.64057 1.39052 1.39052C1.64057 1.14048 1.97971 1 2.33333 1H5.66667L7 3H13C13.3536 3 13.6928 3.14048 13.9428 3.39052C14.1929 3.64057 14.3333 3.97971 14.3333 4.33333V11.6667Z" stroke="#2A2A2A" stroke-width="2" stroke-linecap="round" stroke-linejoin="round"/>
</svg>
